<svg xmlns="http://www.w3.org/2000/svg" viewBox="0 0 25.62 23.53"><defs><style>.cls-1{fill:#333;}</style></defs><title>Asset 1</title><g id="Layer_2" data-name="Layer 2"><g id="Layer_1-2" data-name="Layer 1"><path class="cls-1" d="M25.11,20.9l-5.94-5.18A10.33,10.33,0,0,0,9.36.05,10.34,10.34,0,0,0,.05,11.33a10.36,10.36,0,0,0,10.29,9.36c.33,0,.66,0,1-.05A10.17,10.17,0,0,0,17.25,18l5.89,5.13a1.46,1.46,0,0,0,1,.37A1.48,1.48,0,0,0,25.25,23,1.5,1.5,0,0,0,25.11,20.9ZM11.05,17.66A7.35,7.35,0,0,1,9.64,3q.36,0,.72,0a7.35,7.35,0,0,1,.69,14.66Z"/></g></g></svg>
